<?xml version="1.0" encoding="utf-8"?>
<!-- Generator: Adobe Illustrator 25.2.1, SVG Export Plug-In . SVG Version: 6.00 Build 0)  -->
<svg version="1.1" id="Layer_1" xmlns="http://www.w3.org/2000/svg" xmlns:xlink="http://www.w3.org/1999/xlink" x="0px" y="0px"
	 viewBox="0 0 1028 579" style="enable-background:new 0 0 1028 579;" xml:space="preserve">
<style type="text/css">
	.st0{fill:#FFFFFF;}
</style>
<image style="overflow:visible;enable-background:new    ;" width="1028" height="579" xlink:href="tree.png" >
</image>
<path onclick="window.location='https://en.wikipedia.org/wiki/Tree'" onmouseover="this.style.opacity=1" onmouseout="this.style.opacity=0" class="st0" d="
	M475.6,557.5c0,0,11.8-34,0-56.1c-11.8-22.2-141,0-141,0s-65.3-2.6-78.4,10.5c-13.1,13.1-62.7,11.8-67.9-9.1
	c-5.2-20.9-49.6-32.6-39.2-66.6c10.4-34,41.8-39.2,23.5-57.5s3.9-24.8,11.8-22.2s13.1-20.9,3.9-36.6s19.6-23.5,23.5-36.6
	s-32.7,5.2-22.2-9.1c10.4-14.4,22.2-33.9,15.7-41.8c-6.5-7.8,1.3-7.8,22.2-5.2s27.4,8.6,31.3-1.6c3.9-10.2-6.5-15.4-17-19.3
	s24.8-28.7,28.7-41.8c3.9-13.1,40.5-47,27.4-58.8s-19.9-17,16.2-14.4s51.7,1.3,83.1-10.4S490,57.3,504.3,65.2
	c14.4,7.8,44.4,7.8,57.5,5.2c13.1-2.6,28.7,2.6,35.3-1.3s26.1,0,26.1,0l47-6.5c0,0-11.8,14.3,0,19.5s65.3,3.9,67.9,20.9
	c2.6,17,10.5,26.1,18.3,32.7c7.8,6.5,15.7,26.1,9.1,32.6s26.1,31.3,30,52.2s17,41.8-5.2,41.8s-54.8-15.7-37.9,5.2
	s28.7,25.5,40.5,21.9s13.1,16,20.9,20.6c7.8,4.5,39.2,17.6,36.6,25.4c-2.6,7.8-21.9,19.6,0.2,20.9c22,1.3,36.4,7.8,26,20.9
	c-10.5,13.1-15.7,37.9-11.8,48.3s-14.4-1.3-15.7,3.9c-1.3,5.2,22.2,20.9,18.3,35.3s-31.3,13.1-30,27.4c1.3,14.4-6.5,37.9-34,15.7
	s-2.6,22.2-15.7,17s-27.4-44.4-49.6-37.9s-13.1,40.5-30,37.9s-31.3-41.8-45.7-37.9s0,36.6-20.9,27.4s-26.1-28.7-40.5-24.8
	s-47,35.3-67.9,36.6c-1.3,24.8-2.6,37.9-2.6,37.9L475.6,557.5z"/>
</svg>
